<svg xmlns="http://www.w3.org/2000/svg" xmlns:xlink="http://www.w3.org/1999/xlink"><symbol id="icon-1" viewBox="8.014 4.35 31.972 37.301"><path fill="#63d1bb" d="M24 41.65c8.827 0 15.986-7.159 15.986-15.986C31.158 25.664 24 32.822 24 41.65zM12.641 20.78a4.442 4.442 0 004.44 4.441c.932 0 1.803-.294 2.513-.782l-.036.337c0 2.451 1.99 4.441 4.441 4.441s4.44-1.99 4.44-4.441l-.036-.337a4.396 4.396 0 002.514.782c2.451 0 4.44-1.99 4.44-4.441a4.418 4.418 0 00-2.54-3.997 4.434 4.434 0 002.54-3.997 4.441 4.441 0 00-6.954-3.659l.037-.337a4.441 4.441 0 00-8.881 0l.036.337a4.392 4.392 0 00-2.513-.781 4.442 4.442 0 00-4.44 4.44 4.42 4.42 0 002.54 3.997 4.42 4.42 0 00-2.541 3.997zM24 12.343a4.441 4.441 0 014.44 4.44 4.441 4.441 0 01-8.881 0c0-2.451 1.99-4.44 4.441-4.44zM8.014 25.664c0 8.827 7.158 15.986 15.986 15.986 0-8.828-7.158-15.986-15.986-15.986z"/></symbol><symbol id="icon-2" viewBox="46.212 56.834 46.575 27.332"><path fill="#63d1bb" d="M88.882 56.834H50.116a3.905 3.905 0 00-3.904 3.905V80.26a3.905 3.905 0 003.904 3.905h38.766a3.906 3.906 0 003.905-3.905V60.739a3.906 3.906 0 00-3.905-3.905zm-39.647 24.95V59.551h40.202v22.233H49.235z"/><path fill="#63d1bb" d="M53.14 77.88h32.395V63.456H53.14V77.88zM69.5 65.354a5.315 5.315 0 110 10.63 5.315 5.315 0 010-10.63z"/></symbol><symbol id="icon-3" viewBox="47.475 50.071 33.05 27.857"><path fill="#63d1bb" d="M80.525 58.808a8.736 8.736 0 00-8.736-8.736A8.727 8.727 0 0064 54.865a8.727 8.727 0 00-7.789-4.793 8.736 8.736 0 00-8.736 8.736c0 9.127 14.657 19.121 16.525 19.121 1.869 0 16.525-9.95 16.525-19.121z"/></symbol><symbol id="icon-4"><path d="M.286 14.069a17.244 17.244 0 00.008 6.301l4.121-3.21-4.129-3.091zM24.403 1.585C19.62-.623 13.959-.559 9.149 1.992l7.513 5.625 7.741-6.032zm9.498 11.59l-4.811 3.748 4.936 3.695a17.248 17.248 0 00-.125-7.443zM9.209 32.414c4.844 2.534 10.724 2.65 15.73.113l-8.096-6.062-7.634 5.949zM7.914 14.433L1.681 9.767c-.32.669-.595 1.356-.825 2.056l5.308 3.974 1.75-1.364zm10.679 10.669l8.336 6.242a17.184 17.184 0 001.74-1.372l-8.326-6.234-1.75 1.364zm-7.18-13.395L4.002 6.158a17.073 17.073 0 00-1.269 1.723l6.931 5.189 1.749-1.363zm10.68 10.668l8.092 6.059c.471-.544.904-1.112 1.297-1.701l-7.639-5.721-1.75 1.363zM14.913 8.98L7.196 3.203a17.436 17.436 0 00-1.709 1.394l7.676 5.747 1.75-1.364zm10.679 10.669l6.972 5.221c.33-.662.615-1.341.855-2.033l-6.077-4.55-1.75 1.362zm.856-16.943L.88 22.626c.233.698.513 1.386.839 2.059l26.52-20.663a17.006 17.006 0 00-1.791-1.316zm4.295 3.918a17.418 17.418 0 00-.939-1.106L2.786 26.567a17.144 17.144 0 001.279 1.717l27.09-21.108c-.134-.186-.269-.37-.412-.552zm1.555 2.375L5.552 29.838c.544.501 1.114.962 1.708 1.382l25.962-20.228a17.158 17.158 0 00-.924-1.993z" fill="#63d1bb"/></symbol><symbol id="icon-5" viewBox="612.532 500.386 54.156 23.183"><path d="M652.844 506.098c-3.647-.971-7.839-1.667-12.359-1.666a46.394 46.394 0 00-7.71.623l-6.784-4.668-13.456.005 5.811 6.184h8.447c-4.58 1.598-6.759 3.515-6.759 3.515l.002 3.777s2.313 1.912 6.931 3.518l-8.623-.005-5.811 6.188 13.455.002 6.816-4.692c2.261.398 4.822.647 7.681.648 4.522-.001 8.712-.697 12.36-1.667-1.176-1.775-1.915-3.743-1.918-5.877.003-2.141.738-4.112 1.917-5.885zm3.423 1.034c-1.284 1.605-1.969 3.25-1.965 4.84-.007 1.597.677 3.238 1.968 4.847 6.399-2.162 10.419-4.841 10.419-4.841s-4.019-2.68-10.422-4.846z" fill="#63d1bb"/></symbol><symbol id="icon-6" viewBox="239.665 239.757 32.666 32.486"><path fill="#63d1bb" d="M242.56 272.243h12.504v-13.91H242.56v13.91zm28.182-23.62h-7.335c.521-.267.984-.549 1.396-.845 1.588-1.133 2.424-2.57 2.42-3.999.002-1.169-.556-2.202-1.359-2.901a4.585 4.585 0 00-3.016-1.121c-1.22-.001-2.352.421-3.32 1.069-1.459.979-2.606 2.451-3.424 4.067-.039.079-.078.157-.115.236a12.944 12.944 0 00-1.041-1.792c-.691-.985-1.523-1.86-2.497-2.511-.97-.646-2.103-1.069-3.322-1.069-1.213.004-2.323.514-3.155 1.295-.828.783-1.41 1.885-1.412 3.135-.002.73.211 1.494.649 2.188.552.872 1.424 1.628 2.633 2.248h-6.588c-.878 0-1.591.712-1.591 1.59v5.897h15.396v-7.488h1.873v7.488h15.396v-5.897a1.585 1.585 0 00-1.588-1.59m-22.362-2.339c-.622-.391-1-.785-1.22-1.135-.22-.354-.294-.662-.296-.963-.004-.504.248-1.042.691-1.461.437-.415 1.028-.667 1.562-.667h.013c.685 0 1.366.231 2.046.683 1.018.671 1.975 1.85 2.645 3.187.342.676.609 1.39.789 2.087-3.082-.321-5.078-1.002-6.23-1.731m10.537-1.627c.557-.797 1.21-1.466 1.887-1.916.68-.451 1.362-.683 2.047-.683h.006c.574 0 1.117.22 1.494.55.377.336.571.739.573 1.171-.004.512-.272 1.259-1.467 2.132-1.138.825-3.101 1.673-6.127 2.265a10.57 10.57 0 011.587-3.519m-1.98 27.586h12.506v-13.91h-12.506v13.91z"/></symbol><symbol id="icon-cart" viewBox="264.2 371 20.3 18.8">
<path d="M283.7,378.2h-3.2l-3.4-6.8c-0.2-0.4-0.6-0.5-1-0.3c-0.4,0.2-0.5,0.6-0.3,1l3.1,6.1h-9.1l3.1-6.1
	c0.2-0.4,0-0.8-0.3-1c-0.4-0.2-0.8,0-1,0.3l-3.4,6.8H265c-0.4,0-0.8,0.3-0.8,0.8c0,0.4,0.3,0.8,0.8,0.8h0.2l0.9,3
	c-0.2,0.1-0.3,0.3-0.3,0.6c0,0.4,0.3,0.7,0.7,0.7l1.7,5.8h12.7l1.7-5.8c0.4,0,0.7-0.3,0.7-0.7c0-0.2-0.1-0.5-0.3-0.6l0.9-3h0.2
	c0.4,0,0.8-0.3,0.8-0.8C284.5,378.5,284.2,378.2,283.7,378.2z M279.6,388.3h-10.4l-1.2-4.3h12.9L279.6,388.3z M281.2,382.5h-13.7
	l-0.8-2.8H282L281.2,382.5z"/>
</symbol><symbol id="icon-fb" viewBox="56.5 50 15 27.7">
<g id="facebook">
	<g>
		<path d="M68.2,55.2c1,0,2,0,2.7-0.3c0.4-0.8,0.6-1.9,0.6-3c-0.2,0-0.1-0.3-0.2-0.4c0-0.2-0.3-0.2-0.3-0.4
			c-0.3-0.2-0.5-0.4-0.7-0.6c-0.7-0.2-1.4-0.3-2.2-0.5c-0.8,0-1.9-0.1-2.6,0.1c-2.6,0-4,1.1-5.3,2.4c0,0.1,0,0.2-0.1,0.2
			c-0.6,1.6-0.1,3.6-0.2,5.6c0.1,0.4,0.1,1,0.2,1.4c-1,0.3-2.2,0.4-3.4,0.5c-0.3,0.3-0.2,1.1-0.2,1.7c0.1,0.6,0.3,1.1,0.4,1.6
			c0.2,0.2,0.6,0.4,0.8,0.5c0.1,0,0.1,0.1,0.1,0.1c0.5,0.3,1.5,0,2.3,0.1c-0.1,2,0.3,3.9,0,5.7c0,0.3,0.3,0.4,0.2,0.8
			c0,1-0.1,2,0.2,2.7c-0.3,0.5-0.5,1-0.4,1.8c0.1,0,0.1,0.2,0.1,0.3c-0.1,0.5,0.6,0.2,0.5,0.7c0.2,0.5-0.4,0.2-0.4,0.5v0.9
			c0.5,0.3,1.5,0.2,2.3,0.2c0.9-0.4,2.2-0.5,2.8-1.2c0.5,0.2,0.9,0,1.2-0.2c0-0.3,0.3-0.3,0.2-0.7c0-0.3-0.2-0.5-0.1-0.9v-2.9
			c-0.2-2.3,0-4.9-0.3-7.2c0.9-0.1,1.9-0.1,2.6-0.4c0.4-0.5,0.4-1.2,0.5-1.9c0.2-0.2,0.2-0.6,0.2-1c0.2-0.2,0.1-0.7,0.1-1.1
			c-0.1-0.6-0.2-1.3-0.8-1.4c-0.9-0.2-2,0.6-3,0.3c0-1.1-0.3-2.3,0-3.4C66.8,55.6,67.5,55.4,68.2,55.2z M64.4,60
			c0.1,0.3,0.3,0.5,0.4,0.7c0.1,0,0.2,0,0.2,0.1c1.2,0.1,2.2-0.1,3.1-0.3c0,1-0.3,1.7-0.5,2.5c-0.7,0-1.5,0.3-2,0.2
			c-0.3,0.2-0.4,0.5-0.6,0.7c0,0.4,0.1,0.5,0,0.8c-0.2,0.1-0.1,0.6-0.2,0.8v1.5c0.1,0.3-0.1,0.3-0.1,0.5v3.5
			c-0.1,0.3,0.1,0.3,0.1,0.5v3c0.1,0.3-0.1,0.8,0.1,0.9c-0.1,0.4-0.4,0-0.8,0.1c-0.5,0.1-0.9,0.4-1.5,0.4c0.1-0.4,0.3-0.6,0.3-1.1
			c0-0.4-0.4-0.3-0.5-0.5c0.2-0.6,0.6-1.1,0.7-1.8c0.2-0.5,0.7-1.3,0.3-1.8c-0.5-0.1-0.5,0.3-0.8,0.4c0,0.1,0,0.2-0.1,0.2
			c0,0.1,0,0.2-0.1,0.2c0,0.1-0.2,0.1,0,0c0-0.1,0-0.2,0.1-0.2c0-0.1,0-0.2,0.1-0.2v-0.3c0.4-0.6,0.7-1.2,0.8-2
			c0.2-0.3,0.3-0.7,0.4-1c0.2-0.3,0.3-0.9,0.1-1.2c-0.5,0-0.8,0.3-0.9,0.7c-0.3-0.2,0.2-0.4,0.1-0.7c0.1-0.2,0.2-0.6,0.3-0.8
			c0.2-0.4,0.6-1.3,0-1.6c-0.4,0-0.6,0.2-0.7,0.5c-0.2,0.2-0.4,0.4-0.5,0.7c-0.4-0.1-0.1-0.7-0.2-1.1c-0.1-0.5,0.1-0.9,0-1.2
			c-0.6-0.8-2-0.1-3.2-0.3c-0.1-0.3-0.2-1-0.1-1.2c1-0.1,2.5,0.2,3.2-0.2c0-0.1,0-0.2,0.1-0.2c0.1-0.7-0.3-1-0.5-1.4
			c0.2-0.8,0-2,0.1-3c0.2-0.1,0.3-0.4,0.5-0.6c0.1-1,0.7-1.5,0.7-2.5c-0.3,0-0.6-0.1-0.6,0.2c-0.3-0.1-0.4,0.5-0.5,0.2
			c-0.1-0.5,0.2-0.6,0.3-1c0.6-0.4,1.2-0.8,1.9-1.2c1.7-0.2,4.6-0.4,6.1,0.2c0.1,0.6-0.3,0.9-0.2,1.5h-1.5c-1.1,0.2-2,0.7-3,1
			c-0.2,0.1-0.3,0.3-0.5,0.4c0,0.4-0.2,0.6-0.3,1C64.2,57.4,64.4,58.6,64.4,60z"/>
	</g>
</g>
</symbol><symbol id="icon-flag" viewBox="-11.3 -28.3 46.7 81.7">
<g id="miu">
	<g id="Artboard-1" transform="translate(-755.000000, -443.000000)">
		<g id="slice" transform="translate(215.000000, 119.000000)">
		</g>
		<g id="editor-flag-triangle-notification-glyph">
			<path fill="#63D1BB" d="M751.4,418.5v38.9l38.9-19.5L751.4,418.5z M743.7,496.3v-81.7h3.8v81.7H743.7z"/>
		</g>
	</g>
</g>
<g>
	<rect x="-11.3" y="-28.3" fill="#231F20" width="3.8" height="81.7"/>
</g>
</symbol><symbol id="icon-htmlacademy" viewBox="0 0 47.3 60">
<path d="M23.9,0h-0.2L0,2.5V46l23.6,14l23.6-14V2.5L23.9,0z M44.3,44.2L23.6,56.4L3,44.2V26.4l20.5,12.2v2.2l-14-8.4
	v2.2l14.2,8.5v2.3L9.5,37v2.2l14.2,8.4L37.9,39v-9.1l6.4-3.8C44.3,26,44.3,44.2,44.3,44.2z M44.2,23.8l-5.6,3.4L36,28.8l-12.4-7.3
	v2.2l10.6,6.4H34L33.7,30l-1.6,0.8l-8.8-5.2v2.2l7,4.1L28.7,33l-5.2-3.1V32l3.5,2l-3.5,2L3.1,24l20.4-12.2L44.2,23.8z M44.3,21.6
	L23.5,9.4L3,21.6V5.3l20.6-2.2l20.6,2.2L44.3,21.6L44.3,21.6z"/>
</symbol><symbol id="icon-inst" viewBox="53.1 53.2 21.8 21.3">
<g id="instagram">
	<g>
		<path d="M74.9,65.3c0-2.4-0.3-4.8-0.3-7.1c0-0.8-0.1-1.5-0.2-2.3c-0.1-0.3-0.1-0.7-0.2-1.1
			c-0.3-0.2-0.2-0.6-0.5-0.8c-0.4-0.2-1.2-0.1-1.7-0.2c-0.7,0-1.3-0.1-1.9-0.2c-1.9-0.1-4-0.1-6-0.1c-2,0-4-0.1-5.7-0.4h-2.2
			c-0.1,0-0.1,0.1-0.2,0.1c-0.6,0-1.1,0.2-1.6,0.3c-0.2,0.1-0.4,0.2-0.7,0.3c-0.1,0.2-0.5,0.1-0.6,0.4c-0.2,0.2,0.2,0.5,0,0.6v0.9
			c0.2,0.1,0,0.6,0.1,0.8v1c0,1.3,0.1,2.4,0.1,3.7c0.5,2.8,0.4,6.5,0.1,9.4c0.2,0.6,0.4,1.1,0.5,1.7c0.3,0.5,0.3,1.1,0.7,1.5
			c0.5,0.2,1.2,0.2,1.9,0.2c0.4,0.1,0.7,0.3,1.1,0.3c2.8-0.2,5.5-0.2,8.4-0.2c2.7,0.2,5.8,0.2,8.3-0.2c0.2-0.1,0.1-0.5,0.2-0.8
			c-0.1-0.4,0.2-0.4,0.2-0.8C74.9,70.2,74.9,67.8,74.9,65.3z M61.9,59.1c0.8-0.2,1.5-0.3,2.4-0.3c0.7,0.1,1.3,0.3,1.9,0.5
			c0.1,0.2-0.2,0.5,0.2,0.7V60c0.1,0,0.1,0,0.2,0.1c0.4,0,0.8,0.2,1.1,0.4c0.5,0.1,0.5,0.5,1.1,0.4c-0.1,0.2-0.1,0.5-0.1,0.8
			c0.3,1.2,0.5,2.8,0.3,4.3c-0.2,0.2-0.2,0.4-0.3,0.7c-0.3,0.3-0.5,0.8-0.8,1.1c-0.1,0.2-0.3,0.4-0.5,0.5c-0.1,0.2-0.2,0.5-0.5,0.5
			c-0.3,0.2-0.6,0-0.8-0.1c-0.4,0.2-0.9,0.3-1.2,0.6c-0.8-0.1-1.6-0.2-2.4-0.3c-0.2-0.1-0.5-0.3-0.8-0.3c-0.2-0.2-0.5-0.4-0.8-0.5
			c-0.1-0.1-0.3-0.1-0.5-0.2c-0.2,0-0.2-0.2-0.5-0.2c-0.1-0.4-0.4-0.6-0.5-1.1c-0.2-0.3-0.3-0.8-0.5-1.2c0-1.4,0.1-2.7,0.4-3.8
			c0.3-0.6,0.8-1.1,1.1-1.7c0.2,0,0.4-0.1,0.4-0.3c0.3,0.1,0.4-0.1,0.7-0.1C61.7,59.6,61.7,59.3,61.9,59.1z M60.2,56.4
			c-0.1-0.3-0.1-0.7-0.1-1.1c0-0.3,0.3-0.3,0.3-0.5c0-0.1-0.1-0.1-0.2-0.1c0.1-0.1,0.7-0.1,0.8,0c0.1,0.5-0.4,0.5-0.5,0.7
			c0,0.2,0.3,0,0.5,0.1c0,0.9-0.1,1.5,0,2.2h-0.5c0,0.2,0.2,0.2,0.5,0.2c-0.1,0.3,0.1,0.4,0.1,0.6c-0.2,0.2-0.7,0-1.1,0.1
			C60,58,60.3,57.2,60.2,56.4z M59.5,54.8c0.1,0,0.1,0,0.2,0.1c0.2,0.3,0,0.7-0.1,0.9C59.4,55.6,59.6,55.1,59.5,54.8z M59.7,56.6
			c-0.1-0.1-0.2-0.2-0.2-0.5C59.7,56.2,59.7,56.4,59.7,56.6z M59.7,58c-0.1,0.1-0.1,0-0.1-0.2C59.7,57.7,59.7,57.9,59.7,58z
			 M59.5,58.2c0.2,0,0.1,0.2,0.2,0.2c0,0.2-0.3,0.2-0.4,0.1C59.4,58.4,59.5,58.3,59.5,58.2z M57.2,57c0-0.1,0-0.2-0.1-0.2
			c-0.1-0.7,0.1-1.4,0-2c0.3-0.2,0.8,0,1.1-0.1v1.1c-0.1,0.1-0.2,0.1-0.4,0.1c-0.1,0.3,0.3,0.1,0.4,0.3c0,0.9-0.1,1.8,0.2,2.4
			c-0.6-0.1-0.9,0.1-1.4,0.1c0.1-0.6,0-1.4,0.5-1.6C57.5,57,57.2,57.1,57.2,57z M56.7,57c-0.2,0-0.2-0.5-0.1-0.6
			C56.9,56.4,56.8,56.9,56.7,57z M56.5,58c0.1-0.3,0-0.3,0.1-0.7C56.8,57.3,56.8,58.1,56.5,58z M56.7,55.9c-0.3,0.1-0.3-0.3-0.2-0.4
			C56.8,55.5,56.9,55.8,56.7,55.9z M56.7,54.8c0,0.2-0.1,0.2-0.1,0.3c-0.2,0-0.1-0.2-0.2-0.2C56.5,54.8,56.6,54.8,56.7,54.8z
			 M56.5,58.5c0.1,0,0.1,0.3-0.1,0.2C56.5,58.7,56.5,58.6,56.5,58.5z M55.8,54.8c0,0.3-0.4,0.3-0.4,0H55.8z M54.8,54.9
			c0,0.2-0.3,0.2-0.4,0.4C54.2,55.1,54.5,54.8,54.8,54.9z M54.4,55.6c0.2-0.2,0.5-0.4,0.7-0.6c0-0.1,0.1-0.1,0.1-0.2h0.2
			c0.1,0.4-0.3,0.3-0.3,0.5c0,0.1-0.1,0.1-0.1,0.2c0,0.3,0.1,0.6,0.1,1c-0.3,0-0.3,0.3-0.6,0.2C54.5,56.3,54.3,56.1,54.4,55.6z
			 M54.5,58.9v-1.6c0.2-0.2,0.4-0.4,0.6-0.5c0.3,0.5,0.2,1.4,0.5,1.9C55.2,58.8,54.8,58.8,54.5,58.9z M72.7,70c-0.1,1-0.2,2-0.4,2.8
			c-2.9,0.1-6,0-8.9,0.2c-0.2,0-0.3,0-0.2-0.2c-0.3,0-0.3,0.2-0.5,0.2c0.2-0.3,0.4-0.9,0.2-1.3c-0.8,0-0.8,0.8-1.1,1.3
			c-0.7-0.1-1.1,0.1-1.8,0.1c0.2-0.7,0.7-1,0.9-1.7c-0.4-0.5-1,0.1-1.2,0.5c-0.2,0.5-0.6,0.8-0.8,1.3h-1c0.2-0.5,0.5-0.9,0.8-1.4
			c0.2-0.5,0.6-0.7,0.7-1.4c-0.2-0.3-0.4,0-0.7,0c-0.1,0.2-0.3,0.3-0.4,0.5c-0.2,0.4-0.5,0.7-0.7,1.1c-0.2,0.2-0.3,0-0.5,0.2
			c-0.4,0.3-0.6,0.7-1,1c-0.2-0.1,0-0.4,0.2-0.4c0-0.2-0.1-0.5,0.1-0.6c0.1-0.4,0.2-0.6,0.4-0.9c0.1-0.7,0.5-1.2,0.7-1.9
			c-0.6,0.1-0.7,0.6-1,1c-0.2,0.4-0.5,0.8-0.7,1.3c-0.2-0.1,0-0.6-0.1-0.8c0.1-0.6,0.3-1.1,0.4-1.7c0.1-0.2,0.2-0.5,0.2-0.8
			c0.2-0.2,0-0.6-0.1-0.8c-0.2,0-0.4,0.1-0.5,0.3c-0.2,0-0.2,0.5-0.3,0.3c0-2.6-0.5-4.8-0.5-7.4c0-0.3-0.2-0.4-0.2-0.7
			c1.6,0,3.1,0.1,4.8,0.2c-0.1,0.1-0.2,0.3-0.3,0.4c-0.1,0.1-0.2,0.2-0.4,0.3c-0.6,1.7-1,4-0.6,6.2c0.2,0.6,0.6,1,1,1.4
			c0.9,0.5,1.6,1.1,2.5,1.7c1.7,0.4,3.8,0.4,5.5,0c0.2-0.1,0.5-0.2,0.7-0.4c1.4-1.2,2.8-2.5,3-4.9v-1.4c-0.2-1.6-0.7-2.9-1.7-3.6
			c0.3-0.2,1.1,0,1.7,0.1c0.2,0,0.4,0,0.7,0c0.4,0,0.9-0.1,1.4,0c0.1,0.2,0.1,0.5,0.2,0.8c-0.1,1.7-0.2,3.3-0.2,5.1
			c0.1,0.5,0.1,1,0.2,1.4C73,68.2,72.9,69.1,72.7,70z M73.1,58.8c-0.6-0.1-1.2-0.3-1.9-0.4c0.1-0.3,0.8,0,1-0.2
			c0.4-0.2,0.3-0.9,0.3-1.5c0-0.3,0.1-0.6,0.1-1.1c-0.4-1-1.8-0.4-2.9-0.5c-0.2,0.7-0.5,1.8-0.3,2.7c0.2,0.5,1,0.3,1.5,0.5
			c-0.1,0.3-0.7,0.1-1,0.1c-0.3-0.1-0.7-0.1-1-0.2c-2.3,0.1-4.3,0-6.5,0.2c0.1-1.2,0.1-2.5-0.1-3.6h3.1c-0.3,0.4-0.9,0.5-1.3,0.8
			c-0.4,0.2-0.9,0.5-1.1,0.9c0.2,0.1,0.5-0.2,0.8-0.4c0.4-0.1,0.5-0.4,0.8-0.5c0.4-0.4,1.1-0.6,1.7-0.9c0.4,0,0.7,0,1,0.1
			c1.3,0,2.5,0.1,3.8,0.1c0.6,0.1,1.5,0.1,2,0.3c0.1,0.3,0.2,0.6,0.3,0.9C73.3,57.1,73.1,57.9,73.1,58.8z M67.2,55.1
			C67.3,55,67.2,55,67.2,55.1L67.2,55.1z M67.2,55.1c-0.5,0.2-1,0.3-1.4,0.7C66.3,55.6,66.9,55.5,67.2,55.1z M68.3,55.7
			C68.4,55.6,68.3,55.6,68.3,55.7L68.3,55.7z M66.5,56.6c0.7-0.2,1.2-0.6,1.7-0.9c-0.4,0-0.6,0.3-1,0.4
			C67.1,56.3,66.7,56.3,66.5,56.6z M65.8,55.8C65.7,55.8,65.9,55.9,65.8,55.8L65.8,55.8z M65.2,56.4C65.3,56.3,65.2,56.3,65.2,56.4
			L65.2,56.4z M65.1,56.5C65.2,56.5,65.2,56.4,65.1,56.5C65.1,56.4,65.1,56.4,65.1,56.5z M65,56.5C65.1,56.5,65.1,56.5,65,56.5
			C65,56.4,65,56.5,65,56.5z M64.2,57.1c0.3-0.1,0.6-0.3,0.8-0.6C64.7,56.7,64.4,56.9,64.2,57.1z M66.5,58.1c0.5,0,0.7-0.4,1.2-0.5
			c0.3-0.3,0.8-0.4,1-0.8c-0.6,0-0.8,0.4-1.2,0.5C67.2,57.7,66.7,57.8,66.5,58.1z M64.2,57.1C63.9,57.1,64.2,57.4,64.2,57.1
			L64.2,57.1z M63.6,57.5C63.7,57.5,63.8,57.5,63.6,57.5C63.7,57.4,63.6,57.5,63.6,57.5z M66.5,58.1C66.3,58.2,66.5,58.2,66.5,58.1
			L66.5,58.1z M65.3,59.9c-0.2-0.2-0.7-0.2-1-0.4c-0.7,0-1.2,0.1-1.7,0.2c-0.3,0.2-0.6,0.3-0.9,0.5c-0.3,0.2-0.4,0.4-0.8,0.5
			c-0.2,0.2-0.4,0.5-0.7,0.6c0,0.2-0.2,0.3-0.3,0.4c-0.1,0.1-0.1,0.3-0.2,0.4c0,0.1,0,0.3-0.1,0.3c0.1,1.5,0.3,2.9,0.7,4.2
			c0.3,0.6,1,0.8,1.4,1.3c0.6,0.3,1.3,0.4,2.1,0.5c0.3-0.1,0.6-0.1,0.9-0.1c1.2-0.2,2.1-0.7,2.8-1.4c0.1-0.3,0.3-0.5,0.5-0.7
			c-0.3-0.7,0.3-1.1,0.5-1.6c0-1.3-0.2-2.5-0.6-3.4c-0.3-0.6-0.9-0.8-1.4-1.1c-0.1,0-0.2,0-0.2-0.1C66.1,59.9,65.6,59.8,65.3,59.9z
			 M61.9,64.3c-0.1-0.1-0.1-0.2-0.2-0.4C62,63.8,61.9,64.1,61.9,64.3z M62,64.6C62,64.5,62.1,64.6,62,64.6C62,64.8,62,64.7,62,64.6z
			 M62.4,62.5C62.4,62.4,62.5,62.5,62.4,62.5C62.5,62.6,62.4,62.6,62.4,62.5z M64.1,60.4c-0.2,0.3,0,0.6,0.1,0.8
			C63.9,61.2,63.6,60.4,64.1,60.4z M64.5,64.3C64.4,64.3,64.5,64.3,64.5,64.3C64.6,64.3,64.5,64.4,64.5,64.3z M65.2,67.2
			c0-0.1,0.1,0,0.2,0C65.4,67.3,65.2,67.3,65.2,67.2z M67.4,64.7c-0.2-0.1-0.1,0.2-0.4,0.2c0.1-0.2,0.1-0.3,0.2-0.5
			C67.4,64.4,67.5,64.5,67.4,64.7z M66.3,60.9c0.2,0.1,0.4,0.2,0.6,0.4c0.1,0.2,0.2,0.4,0.4,0.5c0.1,0.8,0.2,1.5,0.2,2.4
			c-0.3,0.1-0.4,0.3-0.7,0.4c-0.8,0-1.4-0.2-1.9-0.5c-0.2-0.3-0.4-0.5-0.5-0.8v-1.1c0.2-0.2,0.3-0.4,0.5-0.6
			c0.2-0.1,0.5-0.2,0.5-0.6c0-0.1-0.1-0.1-0.1-0.2c0.2,0,0.2,0.2,0.4,0.2C65.9,61,66,60.8,66.3,60.9z"/>
	</g>
</g>
</symbol><symbol id="icon-interior" viewBox="0 0 40.2 62.4">
<g>
	<path fill="#149080" d="M15.2,38c-0.3,1-0.2,2.2,0,3.6c0.5,2.6,1.7,6,2.4,9.7h5.1c0.7-3.6,1.9-7,2.5-9.7c0.3-1.4,0.3-2.7,0-3.6
		c-0.3-0.9-0.9-1.6-2-2.3h-6C16,36.3,15.4,37.1,15.2,38z"/>
	<path fill="#149080" d="M27,58H13.2c-1.3,0-2.3,1-2.3,2.2v2.2h2.3H27h2.3v-2.2C29.3,58.9,28.3,58,27,58z"/>
	<path fill="#149080" d="M34.1,2.2H22.4c0-1.2-1-2.2-2.3-2.2c-1.3,0-2.3,1-2.3,2.2H6.1L0,27.7c0.8-0.5,1.6-1,2.6-1
		c1.4,0,2.2,0.8,2.9,1.4C6.2,28.7,6.7,29,7,29c0.3,0,0.8-0.3,1.5-0.8c0.7-0.5,1.6-1.4,2.9-1.4c1.3,0,2.2,0.8,2.9,1.4
		c0.7,0.5,1.2,0.8,1.5,0.8c0.1,0,0.3-0.1,0.6-0.2c0.2-0.1,0.5-0.4,0.9-0.6c0.5-0.4,1.1-1,2-1.2c0.3-0.1,0.6-0.1,0.9-0.1
		c1.3,0,2.2,0.8,2.9,1.4c0.7,0.5,1.2,0.8,1.5,0.8c0.3,0,0.8-0.3,1.4-0.9c0.7-0.6,1.6-1.4,2.9-1.4c1.4,0,2.2,0.8,2.9,1.4
		c0.3,0.3,0.6,0.5,0.9,0.6c0.2,0.1,0.4,0.2,0.6,0.2c0.3,0,0.8-0.3,1.4-0.9c0.7-0.6,1.6-1.4,2.9-1.4c1,0,1.8,0.5,2.6,1L34.1,2.2z"/>
	<path fill="#149080" d="M23.5,53.5h-6.9c-0.7,0-1.1,0.5-1.1,1.1c0,0.6,0.5,1.1,1.1,1.1h6.9c0.7,0,1.1-0.5,1.1-1.1
		C24.7,54,24.2,53.5,23.5,53.5L23.5,53.5z"/>
	<path fill="#149080" d="M20.1,29c-0.1,0-0.3,0.1-0.6,0.2c-0.2,0.1-0.4,0.3-0.6,0.4v3.7h2.3v-3.7C20.8,29.3,20.3,29,20.1,29z"/>
</g>
</symbol><symbol id="icon-logo-footer" viewBox="0 0 101.6 34.1">
<g>
	<path d="M19.1,21.5c-0.1-2.7-0.5-5.3-0.5-8c0-2.2,0.4-4.4-0.4-6.5c0-0.2,0.1-0.5,0.1-0.7c0.2-1-3.3-0.5-3.8,0.5
		c-0.3,0.3-0.5,0.6-0.4,1c0,0.1,0.1,0.2,0.1,0.3c-0.7,3.2-1.6,6.3-2.6,9.4c-0.4,1.2-0.9,2.3-1.3,3.5c-0.6-1.1-1.2-2.2-1.6-3.4
		c-1.4-3.4-2.6-6.9-4.3-10.2c0.2-1.5-3.2-1.4-3.9,0c-0.8,1.7-0.7,3.4-0.4,5.2c0.3,2,0.4,4.1,0.4,6.1c0,4,0.4,7.9,0.4,11.9
		c-0.4,0.4-0.5,0.9-0.1,1.4c0.2,0.2,0.4,0.4,0.6,0.5C2.4,33.2,5,32.6,5,31.2c0-4.1-0.3-8.2-0.4-12.4c0-0.4,0-0.8,0-1.2
		c0.1,0.1,0.1,0.3,0.2,0.4c0.6,1.6,1.3,3.2,2.2,4.7c0.9,1.5,1.3,3.1,1.8,4.7c-0.2,0.2-0.3,0.5-0.2,0.7c0,0.2,0.1,0.3,0.3,0.4
		c0.6,0.5,1.8,0.3,2.5,0c0.3-0.1,0.6-0.3,0.8-0.4c0.3-0.2,0.9-0.7,0.7-1.2c0-0.1-0.1-0.2-0.1-0.3c0.5-1.3,0.7-2.6,1-3.9
		c0.3-1.4,0.8-2.8,1.3-4.1c0.1,0.6,0.1,1.2,0.2,1.9c0.2,2.6,0,5.1,0,7.6c0,0.8,0.1,1.6,0.2,2.5c0.1,0.3,0.4,1.8,0.3,1.9
		C15,33,15.2,33.6,16,33.8c0.9,0.2,2.1-0.1,2.8-0.7c1.2-1.1,0.6-2.8,0.4-4.2C18.7,26.5,19.2,23.9,19.1,21.5z"/>
	<path d="M27.5,22.2c-0.1-2-0.8-3.9-0.8-5.9c0-2.3,0.2-4.6-0.2-6.9c-0.1-0.7-4.1,0.1-3.9,1.1c0.3,2.1,0.2,4.2,0.2,6.4
		c0,2,0.5,3.9,0.7,5.9c0.3,2.1-0.1,4.2,0.1,6.2c0.1,1,0.8,2.7,0.1,3.6c-0.4,0.5,1.5,0.3,1.6,0.3c0.8-0.1,1.8-0.4,2.3-1
		c0.7-0.8,0.2-2.4,0.1-3.4C27.4,26.4,27.6,24.2,27.5,22.2z"/>
	<path d="M43.8,18.9c-2.1-2.8-5.9-0.8-8.6-1.5c-1.4-0.4-1.4-2.3-1.4-3.4c0-1.4-0.1-2.7-0.3-4.1c-0.1-1.1,0-2.1,0.7-2.9
		c0.1-0.1,0.9-0.3,0.8-0.3c0.4-0.1,0.7-0.1,1.1-0.1c1.5-0.1,4.6,0.2,4,2.5c-0.3,1,3.6,0.4,3.9-0.6c1.2-4.6-7.3-3.7-9.7-3.1
		c-2.2,0.6-4.6,1.8-4.8,4.4c-0.1,1.2,0.3,2.4,0.3,3.6c0.1,1.4-0.2,2.8,0.3,4.1c1.1,3,5.5,1.6,7.8,1.7c3.8,0.3,2.7,5.5,2.7,7.9
		c0,1.3,1.2,3.4,0.2,4.5c-0.6,0.7-2,0.7-2.8,0.8c-0.8,0.1-2.2,0.3-2.7-0.5c-1-1.4,0.1-3.8-0.1-5.4c-0.1-0.9-4.1-0.1-3.9,1
		c0.3,2.6-1.4,6.1,2.4,6.6c2.4,0.3,5.2-0.2,7.5-0.9c1.2-0.4,2.3-0.9,3.2-1.8c1-0.9,0.7-2.3,0.4-3.5C44.3,24.8,45.7,21.4,43.8,18.9z"/>
	<path d="M61.2,18.7c-0.1-3.8-0.7-7.5-0.7-11.3c0-2-4-1.3-4,0.3c0,3.6,0.5,7.2,0.7,10.8c0,0.1,0,0.1,0,0.2c-1.9,0-3.9,0.2-5.9,0.2
		c0.2-4.6-0.6-9.2-0.4-13.9c0-0.6-3.9-0.1-3.9,1c-0.2,4.5,0.6,8.9,0.5,13.4c-0.1,2.1-0.2,4.3-0.3,6.4c0,1.1,0.2,2.2,0.3,3.3
		c0.1,1,0.5,2.3,0.2,3.3c-0.2,0.8,3.6,0.3,3.9-0.7c0.5-1.8-0.2-4-0.4-5.8c-0.2-1.7,0-3.5,0.1-5.2c2-0.1,4.1-0.3,6.1,0
		c0.1,1.4,0.2,2.8,0.3,4.1c0.1,1.2,0.2,2.3,0.2,3.5c0,1,0.1,2.5-0.2,3.5c-0.8,2.1,3.2,1.9,3.7,0.4c0.7-1.9,0.5-4.2,0.4-6.2
		C61.6,23.5,61.2,21.1,61.2,18.7z"/>
	<path d="M78.1,23.1c-0.9-2.8-2.4-5.2-3.6-7.8c1-1.9,2-3.9,2.9-5.9c0.8-1.8,1.4-3.8,3.1-5.1c0.6-0.4,0.6-0.9-0.3-1
		c-0.9-0.1-2.1,0.2-2.8,0.7C76,5.3,75,6.7,74.3,8.4c-0.9,2.1-1.9,4.1-2.9,6.1c-0.1,0.1-0.1,0.3-0.2,0.4c-0.5,0.3-0.8,0.8-0.6,1.3
		c-0.8,1.6-1.6,3.1-2.5,4.6c-0.3-5.5-1-11.1-1.2-16.6c0-1.3-4-0.5-3.9,1c0.2,6.9,1.2,13.7,1.3,20.6c0,0,0,0,0,0.1
		c-0.3,0.3-0.2,0.5,0.1,0.6c0,1.8-0.1,3.5-0.2,5.3c-0.5,0.7,0.5,1.1,1.1,1.1c0,0,0.1,0,0.1,0c0.7,0,2.6-0.3,2.7-1.4
		c0.2-2.1,0.3-4.2,0.2-6.3c1.6-1.7,2.9-3.6,4.1-5.6c0.8,1.5,1.5,3,2,4.6c0.9,2.7,2.3,5.3,3.1,8c0.5,1.8,4.5,0.7,3.9-1
		C80.4,28.4,79,25.9,78.1,23.1z"/>
	<path d="M101.6,18.5c-0.2-0.8-1.4-0.8-2.3-0.8c0-0.3,0-0.7,0-1c-0.1-2.7-0.2-5.4-0.4-8c-0.2-2.5-1.6-3.3-4-3.2
		c-2.4,0.1-5.2,0.5-7.5,1.4c-2.6,1-4.1,2.9-4.6,5.7c-0.5,3,0.2,6.2,0.4,9.2c0.2,3.5,0.1,7,0.1,10.5c0,0.6,3.9,0,3.9-1
		c0-2.8,0-5.6,0-8.3c0-0.8-0.1-1.6-0.1-2.4c1.4-0.6,3.7,0,5.1,0.1c1.1,0.1,2.2-0.2,3.2-0.3c0,2.3,0.1,4.6,0.2,6.9
		c0,1.2,0.5,3.5-0.4,4.5c-0.4,0.5,1.5,0.3,1.6,0.3c0.8-0.1,1.8-0.4,2.3-1c0.9-1.1,0.5-3.8,0.4-5.1c-0.1-1.9-0.1-3.8-0.1-5.7
		C100.5,20.1,101.8,19.4,101.6,18.5z M87,18.4c-0.1-1.2-0.2-2.5-0.3-3.7c-0.2-2.3,0.1-5.6,2.3-7c0.6-0.4,1.7-0.3,2.4-0.4
		c1-0.2,2-0.4,2.8,0.2c1.2,0.8,0.9,3.7,0.9,4.9c0,2,0.2,4,0.3,6c-0.6,0.1-1.1,0.1-1.7,0.1C91.4,18.3,89.1,17.9,87,18.4z"/>
	<path d="M24.1,6.7c0.5-0.1,1-0.2,1.5-0.5C25.7,6.1,25.8,6,25.8,6c0.5-0.3,1-0.8,0.7-1.4c-0.5-1.1-0.4-2.2-0.4-3.4
		c0-1-1-1.2-1.8-1.2c-0.7,0.1-2.2,0.6-2.2,1.5c0,1-0.1,2,0.1,3c0,0.1-0.1,0.2-0.1,0.4c-0.1,0.2,0,0.4,0.1,0.6c0,0,0,0.1,0,0.1
		c0,0.1,0,0.2,0,0.3c0.1,0.2,0.2,0.4,0.4,0.5C23.2,6.7,23.7,6.7,24.1,6.7z"/>
</g>
</symbol><symbol id="icon-mail" viewBox="0 0 32 32">
<path d="M28,5H4C1.8,5,0,6.8,0,9v13c0,2.2,1.8,4,4,4h24c2.2,0,4-1.8,4-4V9C32,6.8,30.2,5,28,5z M2,10.2l7,5.3l-7,5.2V10.2z M30,22
	c0,1.1-0.9,2-2,2H4c-1.1,0-2-0.9-2-2l7.8-5.9l4.4,3.3c0.5,0.4,1.2,0.6,1.8,0.6c0.6,0,1.3-0.2,1.8-0.6l4.4-3.3L30,22L30,22z M30,20.7
	l-7-5.2l7-5.3V20.7z M17.2,18.6C16.8,18.9,16.4,19,16,19s-0.9-0.1-1.2-0.4l-4.1-3.1l-0.8-0.6L2,9v0c0-1.1,0.9-2,2-2h24
	c1.1,0,2,0.9,2,2L17.2,18.6z"/>
</symbol><symbol id="icon-map-pin" viewBox="0 0 66 100.8">
<path fill="#FFFFFF" d="M56.3,9.2C43.4-3.1,22.6-3.1,9.7,9.2c-12.9,12.3-12.9,32.2,0,44.5c0,0,23.3,21.8,23.3,47
	c0-25.2,23.3-47,23.3-47C69.2,41.5,69.2,21.5,56.3,9.2z"/>
<path fill="#6BC6B3" d="M47,45.5c-0.6-3.3,0.1-6.9,0-10.3c-0.1-3.8-0.7-7.5-0.7-11.2c0-3,0.5-6.2-0.5-9.1c0.1-0.3,0.1-0.7,0.2-1
	c0.3-1.5-4.6-0.7-5.3,0.6c-0.5,0.4-0.7,0.9-0.5,1.3c0.1,0.1,0.1,0.2,0.1,0.4c-0.9,4.5-2.2,8.8-3.7,13.2c-0.6,1.7-1.2,3.3-1.8,4.9
	c-0.8-1.5-1.6-3.1-2.3-4.7c-1.9-4.8-3.7-9.7-6-14.3c0.3-2.1-4.5-1.9-5.4,0c-1.1,2.4-1,4.8-0.6,7.3c0.4,2.9,0.5,5.7,0.5,8.6
	c0.1,5.6,0.5,11.1,0.6,16.7c-0.5,0.6-0.6,1.2-0.1,1.9c0.2,0.3,0.5,0.5,0.8,0.8c1.3,1,4.9,0.2,4.9-1.8c0-5.8-0.4-11.5-0.6-17.3
	c0-0.6,0-1.1,0-1.7c0.1,0.2,0.2,0.4,0.2,0.6c0.9,2.2,1.8,4.4,3.1,6.5c1.2,2.1,1.8,4.3,2.5,6.5c-0.3,0.3-0.4,0.6-0.3,1
	c-0.1,0.3,0.1,0.4,0.4,0.5c0.9,0.8,2.6,0.4,3.5,0c0.4-0.2,0.8-0.4,1.2-0.6c0.5-0.3,1.2-1,1-1.6c0-0.1-0.1-0.3-0.1-0.4
	c0.7-1.8,1-3.6,1.4-5.5c0.4-2,1.1-3.9,1.8-5.8c0.1,0.9,0.1,1.7,0.2,2.6c0.3,3.6,0,7.1,0,10.7c0,1.2,0.1,2.3,0.3,3.4
	c0.1,0.5,0.5,2.5,0.4,2.6c-0.9,0.8-0.6,1.8,0.5,2c1.3,0.3,2.9-0.1,3.9-1C48.2,49.9,47.4,47.5,47,45.5z"/>
</symbol><symbol id="icon-menu" viewBox="0 0 20 14">
<rect x="0" fill="#231F20" width="20" height="2"/>
<rect x="0" y="6" fill="#231F20" width="20" height="2"/>
<rect x="0" y="12" fill="#231F20" width="20" height="2"/>
</symbol><symbol id="icon-phone" viewBox="0 0 24.8 24.3">
<g>
	<g id="UrwUhy_2_">
		<g>
			<path d="M17.3,24.3c-0.4,0-0.7,0-1.1,0c-4.9-0.6-8.5-2.9-11.1-5.8C2.5,15.6,0.4,11.9,0,6.8c0-0.5,0-0.9,0-1.4
				c0.1-0.9,0.5-1.5,1.1-2.1c0.6-0.7,1.6-1.5,2.5-1.6c0.7,0,1.8,0.5,2.2,1.1c0.4,0.5,0.6,1.6,0.8,2.4C6.8,6.1,7.2,7.2,7.1,8
				c-0.2,1.2-1.8,1.7-2.2,2.6c1.6,3.7,4.1,6.5,7.5,8.3c0.8-0.5,1.6-1.9,2.8-1.9c0.4,0,1,0.2,1.4,0.3c0.5,0.1,0.9,0.3,1.3,0.5
				c0.7,0.3,2,0.6,2.4,1.2c0.4,0.6,0.7,1.6,0.6,2.2C20.6,22.5,18.5,23.9,17.3,24.3z"/>
		</g>
	</g>
	<path d="M12.5,1.5c5.9,0,10.8,4.8,10.8,10.8h1.5C24.8,5.5,19.3,0,12.5,0V1.5z"/>
	<path d="M12.5,9.3v1.6c0.8,0,1.4,0.6,1.4,1.4h1.6C15.5,10.7,14.2,9.3,12.5,9.3z"/>
	<path d="M12.5,6.2c3.3,0,6.1,2.7,6.1,6.1h1.6c0-4.2-3.4-7.6-7.6-7.6V6.2z"/>
</g>
</symbol><symbol id="icon-play" viewBox="0 0 100.7 76.9">
<g>
	<g>
		<path fill="#63D1BB" d="M97,18.1c0,0-0.9-7-3.8-10.1c-3.6-4-7.7-4.1-9.5-4.3c-13.3-1-33.3-1-33.3-1h-0.1c0,0-20,0-33.3,1
			C15.1,4,11.1,4,7.4,8.1c-2.8,3.1-3.8,10.1-3.8,10.1s-0.9,8.2-0.9,16.4v7.7c0,8.2,0.9,16.4,0.9,16.4s0.9,7,3.8,10.1
			c3.6,4,8.4,3.9,10.5,4.3c7.6,0.8,32.4,1,32.4,1s20,0,33.3-1c1.9-0.2,5.9-0.3,9.5-4.3C96,65.7,97,58.7,97,58.7s0.9-8.2,0.9-16.4
			v-7.7C97.9,26.4,97,18.1,97,18.1z"/>
		<path fill="#FFFFFF" d="M50.3,76.9L50.3,76.9c-1,0-25-0.3-32.6-1l-0.1,0l-0.1,0c-0.3-0.1-0.7-0.1-1.1-0.2c-2.5-0.3-7.2-0.9-10.8-5
			C2.1,67,1.1,59.9,1,59l0,0c0-0.3-1-8.5-1-16.7v-7.7c0-8.3,0.9-16.4,0.9-16.7l0-0.1C1,17,2.1,9.9,5.4,6.2c4-4.4,8.5-4.9,10.7-5.1
			c0.2,0,0.4,0,0.5-0.1l0.1,0C30,0,50.1,0,50.3,0h0.1c0.2,0,20.2,0,33.5,1L84,1c0.2,0,0.3,0,0.5,0.1c2.2,0.2,6.7,0.7,10.7,5.1
			c3.4,3.6,4.4,10.8,4.5,11.6l0,0c0,0.3,1,8.5,1,16.8v7.7c0,8.3-0.9,16.4-1,16.7l0,0.1c-0.1,0.8-1.2,8-4.5,11.6
			c-4,4.4-8.5,4.9-10.7,5.1c-0.2,0-0.4,0-0.5,0.1l-0.1,0C70.6,76.9,50.5,76.9,50.3,76.9L50.3,76.9L50.3,76.9z M18.4,70.4
			c7.5,0.7,31.2,1,32,1c0.7,0,20.1,0,33-1c0.2,0,0.4,0,0.6-0.1c1.8-0.2,4.6-0.5,7.2-3.3l0,0c1.8-2,2.9-6.9,3.1-8.6
			c0.1-0.5,0.9-8.4,0.9-16.1v-7.7c0-7.8-0.9-15.6-1-16.1c-0.3-2.4-1.4-6.8-3.1-8.5l0,0c-2.6-2.9-5.4-3.1-7.2-3.3
			c-0.2,0-0.4,0-0.6-0.1c-13.1-1-32.8-1-33-1h-0.1c-0.2,0-20,0-33,1c-0.2,0-0.4,0-0.6,0.1C14.8,6.8,12.1,7,9.5,9.9l0,0
			c-1.8,2-2.9,6.9-3.1,8.6c-0.1,0.6-0.9,8.4-0.9,16.1v7.7c0,7.7,0.9,15.6,0.9,16.1c0.3,2.4,1.4,6.8,3.1,8.5l0,0
			c2.3,2.6,5.3,3,7.5,3.3C17.5,70.3,17.9,70.3,18.4,70.4z"/>
	</g>
</g>
<g>
	<polygon fill="#FFFFFF" points="38.4,20.6 38.4,56.3 68.2,38.4 	"/>
</g>
</symbol><symbol id="icon-search" viewBox="0 0 17.6 17.6">
<path d="M17.3,15.7l-3.4-3.4c1-1.3,1.5-2.9,1.5-4.6C15.4,3.4,12,0,7.7,0S0,3.4,0,7.7s3.4,7.7,7.7,7.7
	c1.7,0,3.3-0.6,4.6-1.5l3.4,3.4c0.2,0.2,0.4,0.3,0.8,0.3c0.6,0,1.1-0.5,1.1-1.1C17.6,16.3,17.5,16,17.3,15.7z M2.2,7.7
	c0-3,2.5-5.5,5.5-5.5s5.5,2.5,5.5,5.5s-2.5,5.5-5.5,5.5S2.2,10.7,2.2,7.7z"/>
</symbol><symbol id="icon-tick" viewBox="0 0 32.7 22.7">
<polygon points="32.7,1.4 31.3,0 11.3,19.9 1.4,10 0,11.4 9.9,21.3 9.9,21.3 11.3,22.7 11.3,22.7 11.3,22.7 12.8,21.3 12.8,21.3 "/>
</symbol><symbol id="icon-toys" viewBox="0 0 60 59.6">
<path fill="#149080" d="M0,43.7l27.4,15.9V36.3L0,20.3V43.7z M51.3,12.4v2.5c0,1.8-3.5,3.3-7.7,3.3c-4.3,0-7.7-1.5-7.7-3.3v-4.1h0
	c0.3,1.7,3.6,3.1,7.7,3.1c4.3,0,7.7-1.5,7.7-3.3c0-1.8-3.5-3.3-7.7-3.3c-0.3,0-0.7,0-1,0l-5-2.9v3.1c0,1.8-3.5,3.3-7.7,3.3
	c-2.7,0-5-0.6-6.4-1.5C23.3,9.2,23,9,22.7,8.8c-0.4-0.4-0.6-0.8-0.6-1.2v-3l-4.8,2.8c-0.3,0-0.7,0-1.1,0c-4.3,0-7.7,1.5-7.7,3.3
	c0,1.8,3.5,3.3,7.7,3.3c4.1,0,7.4-1.4,7.7-3.1h0v4.1c0,1.8-3.5,3.3-7.7,3.3c-4.3,0-7.7-1.5-7.7-3.3v-2.4l-6,3.5l27.5,16L57.5,16
	L51.3,12.4z M37.7,22.6c0,1.8-3.5,3.3-7.7,3.3c-4.3,0-7.7-1.5-7.7-3.3v-4.1h0c0.3,1.7,3.6,3.1,7.7,3.1c4.1,0,7.4-1.4,7.7-3.1h0
	L37.7,22.6L37.7,22.6z M32.6,36.5v23.1L60,43.7V20.5L32.6,36.5z M29.9,6.6c4.3,0,7.7-1.5,7.7-3.3c0-1.8-3.5-3.3-7.7-3.3
	c-4.3,0-7.7,1.5-7.7,3.3C22.2,5.1,25.6,6.6,29.9,6.6"/>
</symbol><symbol id="icon-twitter" viewBox="52.3 53.8 23.5 20.2">
<g id="twitter">
	<g>
		<path d="M75.7,57.9c-0.2-0.4-0.9-0.3-1.4-0.4h-1.1c0.1-0.4,0.3-0.6,0.5-1c0.1-0.4,0.3-0.7,0.2-1.3
			c0.1-0.2,0.2-0.4,0.3-0.6c0.1-0.1,0.2-0.5,0.1-0.7c-0.1-0.2-0.3-0.2-0.6-0.2c-0.1,0-0.2,0.1-0.2,0.1c-0.4,0.4-0.8,1-1.3,1.4
			c0,0-0.1,0-0.1,0c-0.1,0,0,0-0.1,0.1c-0.1,0.1-0.3,0.2-0.4,0.2c-0.3,0.2-0.5,0.4-0.9,0.5c-0.5-0.2-1.2-0.3-1.9-0.4
			c-1.2,0.1-2.3,0.2-3,0.7c-0.9,0.3-1.5,1-2.1,1.6c0,0.3-0.3,0.4-0.4,0.7c0,0,0,0.1-0.1,0.1c0,0.2-0.1,0.3-0.1,0.5
			c0,0.1,0.2,0.4,0,0.5c-0.8-0.1-1.5-0.6-2.1-1c-0.7-0.4-1.5-0.6-2.1-1.1c-0.7-0.3-1.3-0.8-1.8-1.3c-0.2-0.3-0.5-0.5-0.7-0.9
			c-0.4-0.2-0.2-0.9-0.7-0.9c-0.3,0-0.3,0.2-0.4,0.4c-0.1,0.2-0.4,0.2-0.4,0.5c0,0,0,0.1-0.1,0.1c-0.2,1.1-0.5,2-0.5,3.3
			c0.1,0.4,0.3,0.7,0.6,1c-0.4,0.1-0.7,0.2-0.9,0.5c-0.1,1.1,0.4,1.6,0.7,2.3c0.1,0.4,0.4,0.7,0.6,1c0,0.2,0.2,0.3,0.3,0.4
			c0,0.1,0.1,0.1,0.1,0.2c0,0.1,0.3,0.2,0.1,0.2c-0.4,0.1-1,0.1-1.3,0.4c-0.1,0.3-0.1,0.8,0,1.1c0,0.2,0.3,0.3,0.3,0.5
			c0.5,0.4,1.1,0.7,1.6,1.1c0.6,0.2,1.2,0.3,1.9,0.4c-0.1,0.3-0.3,0.6-0.6,0.7c-0.8,0.4-1.8,0.5-2.7,0.7c-0.6,0-1,0.2-1.6,0.2
			c-0.3,0.1-0.9,0.1-1.1,0.2c-0.1,0.1-0.1,0.1-0.2,0.2c-0.1,0.4,0.1,0.7,0.4,0.9c0,0.3,0.2,0.3,0.4,0.4c0.1,0.2,0.3,0.3,0.4,0.4
			c0.5,0.5,1.3,0.8,1.9,1.1c0.8,0.2,1.6,0.4,2.5,0.5c0.9,0.1,1.9,0.1,2.8,0.2h1c0.5,0.1,1.2,0.1,1.9,0.1c0.1-0.1,0.3-0.1,0.5-0.1
			c0.5-0.3,1.2-0.4,1.6-0.7c0.6-0.2,1-0.6,1.6-0.9c0.9-0.8,1.9-1.3,2.5-2.4c0.2-0.2,0.4-0.4,0.4-0.7c0.3-0.2,0.4-0.5,0.6-0.7
			c0.4-0.4,0.7-0.9,1-1.4c0.3-0.5,0.6-1.1,0.9-1.6c0-0.4,0.3-0.5,0.3-0.9c0.2-0.2,0.2-0.7,0.4-0.9c0-0.3,0-0.4,0.1-0.6
			c0-1.3,0-2.4-0.3-3.4c0.6-0.2,1.2-0.3,1.6-0.6C75.4,58.9,75.9,58.5,75.7,57.9z M72.3,61.9c-0.2,0.9-0.6,1.4-1,2
			c0.1,0.4-0.1,0.5-0.1,0.9c-0.2,0.3-0.3,0.7-0.4,1c-0.2,0.3-0.3,0.6-0.5,0.9c-0.4,0.5-0.8,1.1-1.2,1.6c-0.4,0.6-0.9,1-1.3,1.5
			c-0.4,0.5-0.9,0.9-1.4,1.3c-0.5,0.2-0.9,0.4-1.3,0.7c-0.2,0.1-0.5,0.2-0.7,0.3c-0.2,0.1-0.5,0.1-0.7,0.3c-1.1,0.1-2.3,0.2-3.6,0.1
			c-1-0.1-2.1-0.2-3-0.4c-0.9-0.2-1.5-0.7-2.3-1c0.2-0.2,0.6-0.2,1-0.2c0-0.2,0.4,0,0.4-0.1c0.3,0.1,0.3-0.1,0.5-0.1
			c0.6-0.2,1.2-0.3,1.7-0.6c0.3-0.1,0.4-0.4,0.7-0.6c0-0.2,0.1-0.3,0.2-0.4c0-0.3,0.2-0.4,0.1-0.8c0.1-0.2,0.3-0.3,0.3-0.7
			c-0.1-0.1-0.1-0.3-0.3-0.4c0-0.2-0.4-0.1-0.4-0.2c-0.3,0-0.4,0-0.6-0.1c-0.2,0-0.5,0.1-0.5-0.1c-0.8,0-1.3-0.4-1.9-0.7
			c0.4-0.3,1-0.4,1.3-0.7c0.5-0.1,1.1-0.1,1.1-0.7c0-0.7-0.8-0.7-1.3-0.8c-0.8-0.7-1.2-1.7-1.8-2.5c0.2-0.2,0.6-0.2,0.7-0.4
			c0.5,0.1,0.5-0.3,0.7-0.5c0-0.5-0.3-0.6-0.6-0.8c-0.3-0.2-0.5-0.5-0.7-0.7c0-0.8,0-1.7,0.1-2.4c0.1,0,0.1,0,0.1,0.1
			c0.2,0.4,0.6,0.8,0.8,1.2c0.5,0.4,0.9,0.9,1.6,1.1c0.5,0.4,1.1,0.6,1.6,1c0.6,0.3,1.2,0.6,1.7,0.9c0.7,0.2,1.1,0.7,2,0.6
			c0.2-0.1,0.4-0.2,0.6-0.3c0.3-0.5-0.1-1.1,0.1-1.6c0.3-0.7,0.8-1,1.3-1.5c0.3-0.2,0.6-0.3,0.8-0.5c0.3-0.1,0.7-0.2,1-0.4
			c0.4,0,0.7-0.1,1-0.1h1.3c0.2,0.1,0.5,0.1,0.7,0.1c0.2,0.1,0.4,0.3,0.7,0.4c0.8,0.7,1.3,1.7,1.4,3C72.2,60.9,72.3,61.3,72.3,61.9z
			 M72.6,56.3c-0.1,0.3-0.2,0.7-0.6,0.8c0-0.1-0.1-0.1-0.1-0.2c0-0.2,0.2-0.2,0.3-0.3C72.3,56.5,72.4,56.3,72.6,56.3
			C72.6,56.2,72.7,56.3,72.6,56.3z M67.1,59.3c0.2,0.1,0.3,0.3,0.5,0.4c0.1,0.2,0.3,0.3,0.6,0.4c0-0.2,0.3,0,0.4-0.2
			c0.2,0,0.2-0.2,0.3-0.3c0-0.5-0.1-1-0.4-1.3C67.8,57.8,66.8,58.3,67.1,59.3z"/>
	</g>
</g>
</symbol><symbol id="icon-video" viewBox="0 0 32 32">
<g transform="translate(0 192)">
	<path fill="#63D1BB" d="M26-177l6-4v16l-6-4V-177z M24-177v8c0,2.2-1.8,4-4,4H4c-2.2,0-4-1.8-4-4v-8c0-2.2,1.8-4,4-4h10
		c0-1.1,0.9-2,2-2v-2H5c-0.6,0-1-0.4-1-1s0.4-1,1-1h12c0.6,0,1,0.4,1,1v3c1.1,0,2,0.9,2,2C22.2-181,24-179.2,24-177z M12-177H4v8h8
		V-177z M20-176c0-0.6-0.4-1-1-1h-4c-0.6,0-1,0.4-1,1s0.4,1,1,1h4C19.6-175,20-175.4,20-176z"/>
</g>
</symbol></svg>