<?xml version="1.0" encoding="utf-8"?>
<!-- Generator: Adobe Illustrator 21.0.1, SVG Export Plug-In . SVG Version: 6.00 Build 0)  -->
<svg version="1.1" id="Слой_1" xmlns="http://www.w3.org/2000/svg" xmlns:xlink="http://www.w3.org/1999/xlink" x="0px" y="0px"
	 viewBox="0 0 47.3 60" enable-background="new 0 0 47.3 60" xml:space="preserve">
<path fill="#63D1BB" d="M23.9,0h-0.2L0,2.5V46l23.6,14l23.6-14V2.5L23.9,0z M44.3,44.2L23.6,56.4L3,44.2V26.4l20.5,12.2v2.2l-14-8.4
	v2.2l14.2,8.5v2.3L9.5,37v2.2l14.2,8.4L37.9,39v-9.1l6.4-3.8C44.3,26,44.3,44.2,44.3,44.2z M44.2,23.8l-5.6,3.4l-2.6,1.6l-12.4-7.3
	v2.2l10.6,6.4H34L33.7,30l-1.6,0.8l-8.8-5.2v2.2l7,4.1L28.7,33l-5.2-3.1V32l3.5,2l-3.5,2L3.1,24l20.4-12.2
	C23.5,11.8,44.2,23.8,44.2,23.8z M44.3,21.6L23.5,9.4L3,21.6V5.3l20.6-2.2l20.6,2.2V21.6z"/>
</svg>
